<svg xmlns="http://www.w3.org/2000/svg" viewBox="0 0 122 25.1"><path d="M121.9 15.1c-.5-.4-1.1-.5-1.9-.7-1.7-.4-4.7-.7-5.5-.6-2.2.1-4.2.8-4.9.9-2.9.1-2.2-1.7-2-2.4.1-.4-.2-.5-.2-.5-.6-.2-1.1.3-1.6.8-.3.4-.7.7-1.2 1-.8.5-1.6.9-2.4.3-1.3-1-1.1-3.3-1.1-3.7 0-.4.2-1.1.4-1.8.1-.2.2-.4.2-.7.6-1.9.8-3.3.5-3.5h-.1c-.5 0-1.7 1.3-1.9 5.3v.2c-.9 2.1-1.7 3.3-2.1 3.9-.2.3-.7.5-.9.5-.4 0-.7.1-1-.4-.1-.2-.3-.5-.4-1.1v-.2c.6-1 1.4-4.3 1.5-5.7.2-2.1.2-2.4.1-4.3-.1-1.2-.9-2-1-1.9-.5.3-1.4 2.7-1.9 5.8-.1.7-.2 2.2.3 6.3v.2c-.6 1.1-1.4 2.1-2.2 2.9-.4.3-.7.6-1 .7-.2.1-.4 0-.5 0-.3-.1-.6-.6-.6-.8.6-.9 1.3-1.6 1.3-2.9 0-2-.5-3.2-1.1-3.6-.1-.1-.2 0-.3 0-.6.4-1.2.9-1.2 4.2 0 0 0 1.7.3 2.5-.3.5-1.5 2.3-2.7 2.2-1.3-.1-1.4-2.3-1.4-2.3 0-.6.1-2 .1-3.5v-.3-.1c0-.3-1.7-.5-1.7-1 0-.2-.4-.4-.4-.2-.5 1.6-.6 1.7-.6 1.7-.4.8-2.3 4.1-2.8 3.9-1.3-.3-.5-3-.6-3.9 0-.3-.7 0-.7 0-.2.1.1.9-.9 2.1-1.1 1.4-2.6 1.8-3.2 1.6-.3-.1-.6-.4-.7-.7 1.7-1.1 4.3-2.7 4.3-5.3 0-.7-.2-1.5-.4-2-.2-.3-.4-.7-.8-.8-2-.5-3.8 2.9-4.4 4.6-.8 2.2 0 3.3.1 3.5-2.1 1.5-3.2 2-4.4 2-.5 0-.8-.2-.9-.4.5-.7.8-2 .8-3.3v-.1c0-1.2-.3-2.1-.9-2.6-.7-.5-1.9.1-3.1 1 0 0-2.3 2-3.5 4.8 0-1.5.1-3.7.2-5.1.4-1 1.1-2.4 1.2-3.9.1-1.1.1-1.8-.1-2-.1-.1-.4-.2-.5 0-.2.2-.8 1.5-.9 2-.1.3-.2 2.5-.3 3.9-.5 1-1 1.9-1.4 2.5-.6.9-1.1 1.5-1.6 1.9-.4.3-1 .5-1.6.4-.4-.1-.7-.2-.8-.5-.1-.4 0-.9 0-1.8.4-.7.7-1.3.8-2 .1-.3.1-.5 0-.6s-.4-.8-.6-.1v.6c0 .3-.1.5-.1.7 0-1.8-.2-3.1-.4-3.3-.4-.5-.7-.7-1.3-.7-1.6.1-2.5 1-2.9 1.6-.6.9-1.1 2-1.3 3.2-.2 1.3 0 2.9 1.4 3.7.3.2 1 .3 1.5.1.9-.4 1.9-1.6 2.2-2 0 0 .1.6.2 1.1.1.6.3 1.2.7 1.4.6.2 1.2.5 2.3-1 .5-.7 1.4-1.5 2.3-3.1 0-.1.4-.7.7-1.1 0 1.3 0 3.6-.1 5.1-.2.5-.5 1.1-.5 1.3-.3.8-.7 1.6-1 3.6 0 .1-.3 1.9.3 2.4.1.1.3.1.4.1.1 0 .9-.5 1-1.8.1-1.1.1-2.9.2-4.6 0-.1 0-.2.1-.3.8-2 2-4 4-5.7.6-.4 1.6-1.1 2-.5.7.8 1.1 1.5.9 2.8-.1.7-.5 1-.8 1.2-.3-.4-.6-.9-.7-1.2 0-.1-.1-.1-.2-.1h-.2c-.1.2-.3.9-.2 1.5.1.6.4 1.2.6 1.2.3.1.6 0 .9-.2.2.3.6.6 1.3.6.4 0 1.8-.2 4.7-1.9.3.3.6 1 1.4 1 1.7 0 3.1-1.5 4-2.5.3-.2.4 1.5.5 1.7.1.5.2.8.2 1.1.1.5.2.6.2.7.1.1.2.1.3.1.8-.1 3.1-4.3 3.3-4.9 0 0 .4-.9.5-1.2l1.3.1s-.1 1.4-.2 1.6c-.1.7-.2 1.5-.2 2.2-.1 1 .3 2.5 2 3 1.2.3 2.1-.5 3.2-2.1 0 0 .1-.2.2-.3.1.1.2.2.2.3.3.4.9.9 1.8.3 1.4-.8 3.1-3.4 3.1-3.4l.2-.4s.1.3.5.9c.2.3.8 1.2 1.9 1 .5-.1 1.1-.6 1.4-1.1.4-.7.8-1.6 1.2-2.6 0-.1.2-.6.3-.6.1 0 .1.5.1.6.2.8.4 1.7 1 2.5.5.7 1.1 1.1 2.1 1.1 1.1 0 2.1-1 2.7-1.7.1-.1.2-.3.4-.4v.5c.2.8 1 2 3.1 1.9.7 0 1.5-.4 3.4-.6 3.5-.4 4.8.5 6.6 1.9.1.1.2.1.3 0l1.7-1.3c.2-.1.3-.3.1-.4M61.3 8.7s.2-1.2.2-1.4v1l-.3 1.5.1-1.1zm-7 5.6c0 .2 0 .3-.2.6-.6.7-1 1-1 1-.9.8-1.5.4-1.7.2-.7-.7-1.1-1.6-.9-3.1.3-1.3.6-2.1 1.3-2.7.3-.3.8-.6 1.4-.6 1.3.2 1.1 1.1 1.1 1.7-.1.3.2 1.7 0 2.9m6 6.5v1.3c-.1 1.2-.1 1.7-.2 2.1-.1.1-.2.1-.3.1s-.1-.1-.2-.1c-.2-.3-.1-.9 0-1.7.1-.4.3-1.2.7-2.4v.7m14.1-10.4c.8-1.2 1.9-2.3 2.5-2 .9.5 1 1.2 1 1.9 0 .8-.4 1.2-.9 1.9-1.5 1.9-3.2 2.6-3.2 2.6-.1-.1-1.3-1.5.6-4.4m15.9 1.2c.1-1.4.5-1.9.5-1.9s.6 1.3.5 3c0 .8-.1 1.4-.9 2.4-.2-.9-.2-2.6-.1-3.5m5.3-.2c-.2-2-.2-4 .1-6.2.2-1.7.6-2.9 1-3.7.2.7.3 1.5 0 4.6-.1 2-.4 3.5-1.1 5.3m15.6-5.2s.1 0 0 0c1.1-.6 1.2-1.1 1.2-1.2 0-.8-.6-1.3-.8-1.3-.1 0-.3.2-.4.5s-.5 1.5-.4 1.7c.2.2.3.3.4.3M46.3 2.8c0 .1.6.5.8.7.4.3.9 1.4 1.1 1.4.1 0 .3-.2.4-.2v-.1c-.1-.5-.5-1.8-.8-2.1-.4-.4-1.5 0-1.5.3m1.5 15.5c-.2 0-.6-.1-1-1-.5-1.2-.8-2.8-.9-4-.1-1.5-.1-2.8.2-3.6.1-.2-.2-.3-.4 0 0 0-1.4 2.2-2.8 3.5-.4.4-.7.7-1.4.5-.4-.1-.7-.4-.9-1-.3-1.5 0-3.6 0-3.8 0-.3-.4-.6-.7-.6-.2 0-.3 0-.4.1l-.1.1c-2.5 2.5-3.2 6.2-3.2 6.2l-.2.5s-.3-.1-.4-.3c-.1-.3-.9-2.5-1.3-6.2-.1-.5-.1-1.3-.1-1.3s.2-.6.4-1.1 1-2.6 1.2-3.2c.2-.9.2-1.8.2-2.2-.1-.6-.3-.9-.4-.9-.3-.1-.8.5-1.1 1-.3.6-1 2-.9 6.3v.2c-.6 1.3-1.6 2.9-2.2 3.8-.1.1-2.4 4.2-4.3 4.2-.8 0-1.5-.4-2.2-1.3.1 0 .2-.1.3-.1.7-.2 2.2-.7 2-1.3-.6-1.4-1.2-1.6-3.2-2.5-.1 0-.2-.1-.3-.1.1-.8.4-1.6.7-2.2.4-.7 1.1-1.1 1.9-1.4.7-.2 1.4-.1 2 .3 1.5 1 1.3 2.7.9 3.4-.7 0-1.1-.2-1.3-.5 0-.1-.1-.2-.1-.2-.1-.2-.3-.2-.3-.2s-.2 0-.2.2c.1.7.4 1.6 1.5 1.6.5 0 .9-.1 1.1-.4.4-.6.5-1.4.3-2.1-.1-.6-.4-1.2-.9-1.7-.1-.1-.9-.9-2.2-1H27h-.1c-.3 0-1.9 0-3 1.5 0 0 0 .1-.1.1-.5.8-.8 1.5-.9 2.3-2.6-1-7.5-2.3-7.5-2.3-4-1-4.6-1.9-4.6-3.2 0-.4.2-.8.6-1.2 1.2-1.1 2.6-1.6 4.9-1.6 1.4 0 2.4.3 3 .4.9.3 1 .8 1.1.9.2.8-.2.9-.9 1.1-.4.1-1 .1-1.7.1s-1.3-.2-1.9-.3c-.4-.1-.8 0-1.3 0-.1 0-1.1 0-1.1.2s.5.3.7.3c.7.2 1.3.6 3.6.6h.1c2.3 0 3.9-.7 4-1.6 0-.4-.3-.8-.7-1.1-.6-.5-1.9-.9-4.8-.9-.5 0-.9 0-1.3.1-.3 0-2 .2-3.2.9-.1.1-.3.2-.4.3-.4.3-.7.5-1 .7-.3.3-.5.5-.6.8-.1.2-.2.4-.2.6v.4c.1 1.7 1.6 2.3 5.7 3.3 0 0 4.3.9 7.6 2.1 0 .4 0 .9.1 1.4.1.6.3 1.3.5 1.9-1.9.4-4.3.9-7.8 1.5-4.8.9-14.5 2.2-15.1 2.3-.6.1-.8.5-.6.6s2.3.1 3.4.4c.8.2 1.9.6 2.4.8.2.1.4.1.5 0 3.4-1.3 7.8-2.2 11.7-3.2 2.2-.6 4.3-1.2 5.7-1.6.7 1.3 1.7 2.2 3.1 2.1 3.1 0 5.2-5.4 6.2-7.2.1-.3.7-1.3.7-1.3v.7c0 3.1 1.1 7 1.1 7s.2 1.1.5 1.6c.1.3.3.3.5.3.3 0 .4-.1.5-.1.1-.4.1-1.4.2-1.7v-.1c.1-.5.4-1.9.6-2.3.8-2.3 1.5-3.1 2.3-3.9 0-.1.3.3.3.6 0 .5-.2 1.5-.2 2.8 0 .9.2 2.3 1 2.5.6.2 1.6.1 2.5-.9.4-.4.8-.9 1-1.3.3-.4.5-.7.6-.9.1-.1.3-.4.3-.4.2-.2.2.2.3 1.5.2 2.1.4 4.8 1.1 5.8 0 0 .3.2.7 0 .1-.1.2-.1.3-.1l.3-.3c.3-.5.2-.7.1-.7M35.1 2.1c0-.1.1-.2.1-.2l-.1.2c.1 1.1-.2 2.3-.8 3.8.2-1.8.6-3.3.8-3.8M24.5 13.5c-.3-.6-.6-1.2-.8-2.1-.1-.3-.1-.5-.1-.8.1.1.3.1.4.2 0 0 2 .7 2.2 1.7 0 .2-.1.5-.3.5-.2.1-.6.3-1.1.4-.1 0-.2.1-.3.1"/></svg>